<?xml version="1.0" encoding="UTF-8"?><svg id="Ebene_2" xmlns="http://www.w3.org/2000/svg" viewBox="0 0 163 93"><defs><style>.cls-1{fill:#fff;stroke:#1d1d1b;stroke-miterlimit:10;stroke-width:3px;}.cls-2{fill:#e30613;}.cls-2,.cls-3,.cls-4,.cls-5{stroke-width:0px;}.cls-3{fill:#ffed00;}.cls-4{fill:#3aaa35;}.cls-5{fill:#9d9d9c;}</style></defs><g id="Ebene_1-2"><path class="cls-1" d="m156.5,91.5H6.5c-2.76,0-5-2.24-5-5V6.5C1.5,3.74,3.74,1.5,6.5,1.5h150c2.76,0,5,2.24,5,5v80c0,2.76-2.24,5-5,5Z"/><line class="cls-1" x1="160.98" y1="14.07" x2="1.01" y2="14.07"/><circle class="cls-2" cx="152.78" cy="7.94" r="2.5"/><circle class="cls-3" cx="146.13" cy="7.94" r="2.5"/><circle class="cls-4" cx="139.46" cy="7.94" r="2.5"/><rect class="cls-5" x="6.37" y="18.11" width="41.15" height="7.43" rx="3.72" ry="3.72"/><rect class="cls-5" x="6.37" y="28.21" width="68.74" height="7.43" rx="3.72" ry="3.72"/><rect class="cls-5" x="6.37" y="38.32" width="96.07" height="7.43" rx="3.72" ry="3.72"/><rect class="cls-5" x="51.4" y="18.11" width="41.15" height="7.43" rx="3.72" ry="3.72"/><rect class="cls-5" x="105.7" y="18.11" width="50.15" height="27.64" rx="5" ry="5"/><rect class="cls-5" x="6.5" y="48.42" width="82.04" height="7.43" rx="3.72" ry="3.72"/><rect class="cls-5" x="91.28" y="48.42" width="64.57" height="7.43" rx="3.72" ry="3.72"/><rect class="cls-5" x="6.92" y="58.52" width="50.15" height="27.64" rx="5" ry="5"/><rect class="cls-5" x="59.91" y="58.52" width="95.93" height="7.43" rx="3.72" ry="3.72"/><rect class="cls-5" x="60.27" y="68.62" width="49.6" height="7.43" rx="3.72" ry="3.72"/><rect class="cls-5" x="60.27" y="78.72" width="66.82" height="7.43" rx="3.72" ry="3.72"/><rect class="cls-5" x="130.77" y="78.72" width="25.08" height="7.43" rx="3.72" ry="3.72"/><rect class="cls-5" x="111.88" y="68.62" width="43.97" height="7.43" rx="3.72" ry="3.72"/></g></svg>